<svg
  width="139"
  height="10"
  viewBox="0 0 139 10"
  fill="none"
  xmlns="http://www.w3.org/2000/svg"
>
<path
    fill-rule="evenodd"
    clip-rule="evenodd"
    d="M52.8191 9.71427C52.065 9.71427 51.4752 9.60824 51.0511 9.39353C50.6257 9.18015 50.3288 8.86074 50.1591 8.43265C49.9895 8.00589 49.9047 7.47839 49.9047 6.84753V3.27834C49.9047 2.25384 50.1326 1.49839 50.5899 1.01331C51.0458 0.528228 51.7893 0.284363 52.8204 0.284363H57.6143C58.3472 0.284363 58.9065 0.324123 59.2948 0.40497C59.6818 0.484492 59.8766 0.567989 59.8766 0.652812L59.5586 1.98082C59.3783 1.94901 58.8442 1.91455 57.9575 1.87612C57.0709 1.83901 55.7839 1.82045 54.0954 1.82045H53.283C52.4334 1.82045 52.0093 2.1995 52.0093 2.95761V7.0397C52.0093 7.40285 52.1021 7.6825 52.2877 7.87998C52.4732 8.07746 52.8059 8.17553 53.283 8.17553H53.9364C55.6991 8.17553 57.0669 8.15698 58.0384 8.11987C59.0099 8.08276 59.6129 8.043 59.8462 7.99926L60.4996 9.05557C60.4996 9.10858 60.4121 9.18943 60.2371 9.29546C60.0622 9.40281 59.7401 9.49824 59.2736 9.58306C58.8058 9.66788 58.1325 9.71162 57.2511 9.71162H52.8231L52.8191 9.71427ZM17.2998 9.7142V1.58314L17.1407 0.286945H24.1969C24.8768 0.286945 25.4096 0.378394 25.798 0.558642C26.185 0.740216 26.4726 0.977455 26.6581 1.27036C26.8437 1.56459 26.9629 1.87605 27.016 2.20739C27.069 2.53872 27.0955 2.85283 27.0955 3.15236V4.09734C27.0955 4.34253 27.0584 4.61821 26.9841 4.92171C26.9099 5.22522 26.7721 5.51945 26.5706 5.80175C26.3692 6.08405 26.0763 6.31996 25.6946 6.50552C25.3129 6.69239 24.8132 6.78517 24.1969 6.78517H22.572C21.9027 6.78517 21.2785 6.76926 20.7006 6.73745C20.1214 6.70564 19.6894 6.67914 19.4031 6.65793V9.71553H17.3011L17.2998 9.7142ZM19.4018 5.24775H23.7344C24.2128 5.24775 24.5415 5.1298 24.7218 4.89521C24.902 4.66062 24.9921 4.37832 24.9921 4.04698V3.03838C24.9921 2.69644 24.902 2.40884 24.7218 2.17425C24.5415 1.93966 24.2168 1.82171 23.7503 1.82171H19.4018V5.24775ZM2.10334 9.71414C1.38102 9.71414 0.850879 9.68233 0.510263 9.61872C0.170972 9.5551 0 9.47956 0 9.39473L0.637496 8.00178C0.881361 8.04419 1.4897 8.08395 2.46119 8.12239C3.43267 8.1595 4.76863 8.17806 6.46774 8.17806H6.76992C7.22584 8.17806 7.55055 8.09588 7.74141 7.93021C7.93226 7.76454 8.02768 7.48489 8.02768 7.08994V6.7692C8.02768 6.39545 7.95081 6.12905 7.79707 5.96869C7.64333 5.80832 7.30006 5.7288 6.76992 5.7288H3.07483C2.00261 5.7288 1.22198 5.52867 0.732922 5.12841C0.243865 4.72815 0 4.07475 0 3.16688V2.91109C0 2.44191 0.0874749 2.00985 0.262422 1.61489C0.437369 1.21994 0.736897 0.903177 1.16234 0.661962C1.58645 0.422072 2.17093 0.301465 2.91446 0.301465H7.24705C7.96936 0.301465 8.55252 0.338575 8.99917 0.41412C9.44581 0.48834 9.66847 0.569187 9.66847 0.654009L9.35039 1.99925C9.07471 1.96744 8.44782 1.93298 7.47103 1.89454C6.49424 1.85743 5.18214 1.83888 3.53605 1.83888L3.36111 1.82297C2.87205 1.82297 2.54336 1.92238 2.37371 2.11853C2.20407 2.31601 2.11262 2.56385 2.10334 2.86338V3.13508C2.10334 3.48762 2.20142 3.75137 2.39757 3.92764C2.59372 4.10391 2.92109 4.19138 3.37701 4.19138H6.91306C7.59297 4.19138 8.17215 4.2603 8.64927 4.39947C9.12773 4.53863 9.49352 4.79177 9.74799 5.16022C10.0025 5.52867 10.1297 6.07074 10.1297 6.78511V7.0409C10.1297 7.84141 9.92559 8.48686 9.51606 8.97725C9.10652 9.46763 8.39878 9.71414 7.39019 9.71414H2.10334ZM36.54 0.301465L31.8735 9.71414H34.1981L35.2332 7.68105H40.9363L41.8759 9.71414H44.3292L39.6785 0.301465H36.54ZM40.3478 6.11315H35.8098L38.0072 1.74345H38.1663L40.3478 6.11315ZM66.8683 0.301465V9.71414H75.5653C76.2664 9.71414 76.7607 9.69559 77.047 9.65848C77.3333 9.62004 77.4764 9.58028 77.4764 9.53787L76.8389 8.17673H68.9703V5.63205H74.9278V4.04692H68.9703V1.83755H76.7753V0.301465H66.8683ZM87.0495 9.7142L87.0336 1.82303H82.8918V0.286945H93.3092V1.82303H89.1515V9.7142H87.0495ZM99.6801 0.301465V9.71414H101.782V0.301465H99.6801ZM109.269 9.71432V1.58326L109.11 0.302966H111.532L115.131 6.70576L118.858 0.302966H121.008V9.71564H118.906V3.74492H118.731L118.109 5.13787L116.103 8.75609H114.176L112.169 5.13787L111.532 3.74492H111.373V9.71564H109.27L109.269 9.71432ZM128.335 0.301465V9.71414H137.032C137.734 9.71414 138.228 9.69559 138.514 9.65848C138.8 9.62004 138.944 9.58028 138.944 9.53787L138.306 8.17673H130.437V5.63205H136.395V4.04692H130.437V1.83755H138.242V0.301465H128.335Z"
    fill="url(#paint0_linear_19_262)"
  />
<defs>
<linearGradient
      id="paint0_linear_19_262"
      x1="11.1463"
      y1="0.284363"
      x2="73.152"
      y2="85.1673"
      gradientUnits="userSpaceOnUse"
    >
<stop offset="0.251308" stop-color="#996DFF" />
<stop offset="0.623787" stop-color="#FF876E" />
<stop offset="1" stop-color="#FFD072" />
</linearGradient>
</defs>
</svg>
